<?xml version="1.0" encoding="UTF-8"?>
<!DOCTYPE svg PUBLIC "-//W3C//DTD SVG 1.1//EN" "http://www.w3.org/Graphics/SVG/1.1/DTD/svg11.dtd">
<!-- Creator: CorelDRAW 2018 (64 Bit Versão de avaliação) -->
<svg xmlns="http://www.w3.org/2000/svg" xml:space="preserve" width="30mm" height="30mm" version="1.1" style="shape-rendering:geometricPrecision; text-rendering:geometricPrecision; image-rendering:optimizeQuality; fill-rule:evenodd; clip-rule:evenodd"
viewBox="0 0 3000 3000"
 xmlns:xlink="http://www.w3.org/1999/xlink">
 <defs>
  <style type="text/css">
   <![CDATA[
    .str0 {stroke:#201E1E;stroke-width:30;stroke-linejoin:round;stroke-miterlimit:22.9256}
    .fil1 {fill:#FEFEFE}
    .fil0 {fill:black}
   ]]>
  </style>
 </defs>
 <g id="Camada_x0020_1">
  <metadata id="CorelCorpID_0Corel-Layer"/>
  <g id="_1460868596176">
   <path class="fil0" d="M204.82 2756.98c28.89,32.75 6.34,15.95 42.66,15.95 8.13,0 94.12,-3.48 95.67,-4.12 17.15,-7.01 -5.22,-8.23 33.29,-8.23 27.49,0 6.07,-4.12 33.28,-4.12 27.5,0 314.99,0.48 316.16,0 9.25,-3.79 3.29,-12.34 20.81,-12.34 10.81,0 18.6,-12.35 45.76,-12.35 2.07,0 37.29,-0.06 37.43,0 6.26,2.56 13.73,8.23 20.81,8.23 0,8.75 15.24,12.92 16.64,12.35 19,-7.79 -5.76,-8.23 33.28,-8.23 19.51,0 1.27,4.11 20.8,4.11 0,4.83 9.84,12.09 16.63,-4.11 2.43,-5.79 7.76,-4.12 12.49,-6.18 16.51,-2.06 -18.69,-10.29 24.96,-10.29 12.53,0 19.4,-0.93 24.96,12.35 2.55,6.1 1.82,28.81 16.64,28.81 178.88,0 357.77,0 536.65,0 5.18,0 35.78,12.35 49.92,12.35 15.41,0 -12.89,4.11 16.64,4.11 23.58,0 47.15,0 70.72,0 0,-11.1 27.29,-8.23 37.44,-8.23 0,-7.78 8.5,-4.11 20.8,-4.11 0,-7.52 22.71,-4.12 33.28,-4.12 7.26,0 116.05,-0.17 116.49,0 20.05,8.23 -8.37,8.23 37.44,8.23 28.67,0 144.09,5.62 158.08,-8.23 10.03,-9.92 4.12,-8.23 16.64,-8.23 8.95,-17.7 5.33,-3.6 16.64,-8.23 12.21,-5.01 1.84,-4.12 20.8,-4.12 15.76,0 16.96,12.35 29.12,12.35 0,22.76 92.24,16.46 112.32,16.46 22.18,0 15.26,-4.11 37.44,-4.11 0,-14.62 14.37,-5.59 20.8,-8.23 10.39,-4.26 0.44,-4.12 20.8,-4.12 30.22,0 116.36,4.46 137.29,-4.12 19.8,-8.11 0.82,-8.23 29.12,-8.23 49.61,0 144.09,-5.94 187.2,4.12 20.89,4.87 9.93,4.11 33.29,4.11 28.15,0 2.9,8.24 41.59,8.24l33.29 0c0,-22.92 0.89,-12.64 -4.17,-24.7 -3.05,-7.27 5.54,-37.04 -4.16,-37.04 0,-9.51 2.38,-12.35 -8.32,-12.35 0,-22.25 -8.31,-8.42 -8.31,-24.7 0,-23.07 0.93,-4.3 -4.17,-16.46 -0.1,-0.24 0,-59.21 0,-65.86 0,-38.29 8.33,-13.3 8.33,-41.16 0,-18.76 -0.91,-8.49 4.15,-20.58 0.14,-0.32 0,-76.89 0,-86.44 0,-14.08 -2.57,-13.7 4.16,-16.46 13.16,-5.39 8.32,-137.37 8.32,-160.53 0,-2.9 -7.87,-35.97 -8.32,-37.04 -5.84,-13.95 -24.96,-16.96 -24.96,-41.16 0,-31.21 8.32,-26.59 8.32,-32.93 18.19,0 -0.16,-12.35 12.48,-12.35 0,-115.25 0,-230.49 0,-345.74 0,-27.35 4.16,-11.13 4.16,-28.81 0,-16.79 -0.72,-0.7 4.16,-12.36 0.22,-0.51 0,-123.95 0,-139.93 0,-39.39 4.16,-66.85 4.16,-107.03 0,-40 -4.02,-19.05 -8.32,-37.04 -14.53,-60.92 -8.31,-129.41 -8.31,-193.45 0,-24.54 -0.13,-10.95 -4.16,-20.58 -0.09,-0.21 0,-52.6 0,-57.62 0,-19.12 4.16,-18.63 4.16,-24.7 18.17,0 -0.17,-12.35 12.47,-12.35 0,-15.09 0,-30.19 0,-45.28 0,-24.15 -16.63,-20.16 -16.63,-32.93 -12.34,0 -34.92,-20.58 -54.09,-20.58 -22.47,0 2.69,-4.11 -12.48,-4.11 0,-11.49 -4.89,-37.05 12.48,-37.05 16.33,0 20.85,-8.23 24.96,-10.29 20.35,-2.05 10.38,-1.9 20.8,-6.17 7.76,-3.18 3.36,7.77 8.33,-4.11 6.22,-14.9 12.47,16.5 12.47,-41.17 21.4,0 10.18,-4.11 20.8,-4.11 0,-31.56 0,-63.11 0,-94.67 0,-18.78 0.91,-8.49 -4.15,-20.58 -0.27,-0.64 0,-156.48 0,-172.88 0,-21.84 -8.33,-31.14 -8.33,-37.04 0,-23.07 0.93,-4.3 -4.16,-16.46 -0.13,-0.32 0,-78.83 0,-86.44 0,-14.67 -8.32,-22.44 -8.32,-28.81 0,-14.68 -5.48,-94.67 8.32,-94.67 0,-18.78 -0.89,-8.51 4.16,-20.58 2.41,-5.78 -5.24,-12.35 4.17,-12.35 0,-8.23 0,-16.47 0,-24.7 0,-13.81 3.39,-12.94 8.31,-24.69 1.35,-3.21 2.98,-39.28 3.11,-40.64 -8.89,8.79 -64.6,4.11 -79.04,4.11 -20.24,0 -25.61,4.12 -37.44,4.12 -19.38,0 -18.77,4.12 -24.97,4.12 -22.55,0 -10.44,-0.24 -29.11,4.11 -4.46,1.05 -144.9,0 -162.24,0 -13.27,0 -62.41,4.01 -62.41,20.59 -22.07,0 -5.57,-0.43 -16.63,4.11 -7.22,2.96 -16.65,-5.55 -16.65,4.11 -12.57,0 -74.88,5.87 -74.88,-8.22 -6.85,0 -16.64,-1.92 -16.64,-8.24 -5.56,0 -12.48,-3.6 -12.48,-8.23 -9.9,0 -17.73,-7.69 -29.12,-12.35 -0.13,-0.05 -29.87,0 -33.28,0 -24.85,0 -11.06,0.12 -20.8,4.12 -0.73,0.29 -181.99,0 -195.53,0 -30.25,0 -46,-4.12 -74.88,-4.12 -19.33,0 -18.79,-4.12 -24.96,-4.12 -22.08,0 -5.57,0.42 -16.64,-4.11 -17.19,-7.05 -439.34,-4.12 -495.05,-4.12 -36.69,0 -20,8.23 -33.28,8.23 -16.9,0 -9.69,-0.43 -20.8,4.12 -11.21,4.59 -12.34,-8.51 -20.8,8.23 -31.89,0 -63.79,0 -95.68,0 -11.43,0 -41.6,5.51 -41.6,16.46 -7.34,0 -10.69,3.96 -12.48,8.24 -3.04,7.27 -89.46,4.11 -104,4.11 -19.48,0 -22.02,-12.35 -33.29,-12.35 -15.72,0 -16.93,-12.34 -29.12,-12.34 -2.88,0 -32.42,-17.01 -37.43,-20.58 -11.33,-8.08 -47.16,-4.12 -62.41,-4.12 -32.56,0 -51.44,4.12 -83.2,4.12 -23.31,0 -4.35,-0.92 -16.64,4.11 -14.04,5.76 -24.96,1.06 -24.96,8.24 -124.8,0 -249.6,0 -374.41,0 -19.3,0 -126.38,6.66 -137.28,-4.12 -15.35,-15.19 -16.64,10.82 -16.64,-12.35 -15.1,44.84 -12.48,63.78 -12.48,111.13 0,47.64 12.48,23.36 12.48,49.39 0,38.89 -9.35,15.53 -16.64,32.94 -4.38,10.45 -11.38,16.63 8.32,24.69 10.48,4.3 -3.58,12.35 12.48,12.35 0,12.57 2.63,37.05 -12.48,37.05 0,15.72 -16.64,-2.75 -16.64,41.15 0,5.55 -0.33,39.79 0,41.16 8.7,36.44 8.32,22.91 8.32,61.75 0,44.98 -6.32,360.16 4.16,374.55 10.78,14.8 4.16,76.35 4.16,98.79 0,9.36 -0.16,102.52 0,102.9l4.16 12.35c9.26,4.58 12.48,4.01 12.48,12.34 12.86,6.37 12.48,10.3 12.48,24.7 12.68,6.27 8.32,11.17 8.32,28.81 0,4.26 0.11,69.72 0,69.97 -5.06,12.09 -4.16,1.81 -4.16,20.59 0,34.01 -12.48,19.57 -12.48,53.5 0,16.96 1.99,30.6 -4.16,45.28 -3.29,7.86 -8.32,14.17 -8.32,24.7 0,8.27 0.15,94.32 0,94.67 -8.79,21 -8.32,-8.33 -8.32,28.81 0,30.54 -5.56,108.44 4.16,131.71 7.46,17.82 29.12,12.53 29.12,57.63 0,19.07 2.72,41.2 -4.16,57.62 -8.35,19.93 -8.32,-8.16 -8.32,37.05 0,44.09 -24.96,11.16 -24.96,53.5 0,22.8 -8.32,-8.23 -8.32,37.04 0,16.6 -4.16,14.03 -4.16,37.05 0,6.3 -0.12,77.92 0,78.21 5.09,12.15 4.16,-6.61 4.16,16.46 0,13.78 4.16,6.59 4.16,28.81 0,10.98 0,21.95 0,32.93 -9.37,0 -6.09,28.27 -12.48,37.05 -13.06,17.92 1.2,63.93 -4.16,86.43 -4.09,17.14 -4.16,9.9 -4.16,28.81 -8.39,0 -12.48,17.11 -12.48,24.7 0,67.22 0,134.46 0,201.69 -10.46,0 -0.35,7.38 -4.16,16.46 -4.6,10.97 -4.16,3.82 -4.16,20.58 0,37.85 -12.48,8.59 -12.48,57.62 0,13.72 0,27.44 0,41.16z"/>
   <path class="fil1 str0" d="M157.68 2701.78c28.89,32.75 6.34,15.95 42.66,15.95 8.13,0 94.12,-3.48 95.67,-4.12 17.15,-7.01 -5.22,-8.23 33.29,-8.23 27.49,0 6.07,-4.12 33.28,-4.12 27.5,0 314.99,0.48 316.16,0 9.25,-3.79 3.29,-12.34 20.81,-12.34 10.81,0 18.6,-12.35 45.76,-12.35 2.07,0 37.29,-0.06 37.43,0 6.26,2.56 13.73,8.23 20.81,8.23 0,8.75 15.24,12.92 16.64,12.35 19,-7.79 -5.76,-8.23 33.28,-8.23 19.51,0 1.27,4.11 20.8,4.11 0,4.83 9.84,12.09 16.63,-4.11 2.43,-5.79 7.76,-4.12 12.49,-6.18 16.51,-2.06 -18.69,-10.29 24.96,-10.29 12.53,0 19.4,-0.93 24.96,12.35 2.55,6.1 1.82,28.81 16.64,28.81 178.88,0 357.77,0 536.65,0 5.18,0 35.78,12.35 49.92,12.35 15.41,0 -12.89,4.11 16.64,4.11 23.58,0 47.15,0 70.72,0 0,-11.1 27.29,-8.23 37.44,-8.23 0,-7.78 8.5,-4.11 20.8,-4.11 0,-7.52 22.71,-4.12 33.28,-4.12 7.26,0 116.05,-0.17 116.49,0 20.05,8.23 -8.37,8.23 37.44,8.23 28.67,0 144.09,5.62 158.08,-8.23 10.03,-9.92 4.12,-8.23 16.64,-8.23 8.95,-17.7 5.33,-3.6 16.64,-8.23 12.21,-5.01 1.84,-4.12 20.8,-4.12 15.76,0 16.96,12.35 29.12,12.35 0,22.76 92.24,16.46 112.32,16.46 22.18,0 15.26,-4.11 37.44,-4.11 0,-14.62 14.37,-5.59 20.8,-8.23 10.39,-4.26 0.44,-4.12 20.8,-4.12 30.22,0 116.36,4.46 137.29,-4.12 19.8,-8.11 0.82,-8.23 29.12,-8.23 49.61,0 144.09,-5.94 187.2,4.12 20.89,4.87 9.93,4.11 33.29,4.11 28.15,0 2.9,8.24 41.59,8.24l33.29 0c0,-22.92 0.89,-12.64 -4.17,-24.7 -3.05,-7.27 5.54,-37.04 -4.16,-37.04 0,-9.51 2.38,-12.35 -8.32,-12.35 0,-22.25 -8.31,-8.42 -8.31,-24.7 0,-23.07 0.93,-4.3 -4.17,-16.46 -0.1,-0.24 0,-59.21 0,-65.86 0,-38.29 8.33,-13.3 8.33,-41.16 0,-18.76 -0.91,-8.49 4.15,-20.58 0.14,-0.32 0,-76.89 0,-86.44 0,-14.08 -2.57,-13.7 4.16,-16.46 13.16,-5.39 8.32,-137.37 8.32,-160.53 0,-2.9 -7.87,-35.97 -8.32,-37.04 -5.84,-13.95 -24.96,-16.96 -24.96,-41.16 0,-31.21 8.32,-26.59 8.32,-32.93 18.19,0 -0.16,-12.35 12.48,-12.35 0,-115.25 0,-230.49 0,-345.74 0,-27.35 4.16,-11.13 4.16,-28.81 0,-16.79 -0.72,-0.7 4.16,-12.36 0.22,-0.51 0,-123.95 0,-139.93 0,-39.39 4.16,-66.85 4.16,-107.03 0,-40 -4.02,-19.05 -8.32,-37.04 -14.53,-60.92 -8.31,-129.41 -8.31,-193.45 0,-24.54 -0.13,-10.95 -4.16,-20.58 -0.09,-0.21 0,-52.6 0,-57.62 0,-19.12 4.16,-18.63 4.16,-24.7 18.17,0 -0.17,-12.35 12.47,-12.35 0,-15.09 0,-30.19 0,-45.28 0,-24.15 -16.63,-20.16 -16.63,-32.93 -12.34,0 -34.92,-20.58 -54.09,-20.58 -22.47,0 2.69,-4.11 -12.48,-4.11 0,-11.49 -4.89,-37.05 12.48,-37.05 16.33,0 20.85,-8.23 24.96,-10.29 20.35,-2.05 10.38,-1.9 20.8,-6.17 7.76,-3.18 3.36,7.77 8.33,-4.11 6.22,-14.9 12.47,16.5 12.47,-41.17 21.4,0 10.18,-4.11 20.8,-4.11 0,-31.56 0,-63.11 0,-94.67 0,-18.78 0.91,-8.49 -4.15,-20.58 -0.27,-0.64 0,-156.48 0,-172.88 0,-21.84 -8.33,-31.14 -8.33,-37.04 0,-23.07 0.93,-4.3 -4.16,-16.46 -0.13,-0.32 0,-78.83 0,-86.44 0,-14.67 -8.32,-22.44 -8.32,-28.81 0,-14.68 -5.48,-94.67 8.32,-94.67 0,-18.78 -0.89,-8.51 4.16,-20.58 2.41,-5.78 -5.24,-12.35 4.17,-12.35 0,-8.23 0,-16.47 0,-24.7 0,-13.81 3.39,-12.94 8.31,-24.69 1.35,-3.21 2.98,-39.28 3.11,-40.64 -8.89,8.79 -64.6,4.11 -79.04,4.11 -20.24,0 -25.61,4.12 -37.44,4.12 -19.38,0 -18.77,4.12 -24.97,4.12 -22.55,0 -10.44,-0.24 -29.11,4.11 -4.46,1.05 -144.9,0 -162.24,0 -13.27,0 -62.41,4.01 -62.41,20.59 -22.07,0 -5.57,-0.43 -16.63,4.11 -7.22,2.96 -16.65,-5.55 -16.65,4.11 -12.57,0 -74.88,5.87 -74.88,-8.22 -6.85,0 -16.64,-1.92 -16.64,-8.24 -5.56,0 -12.48,-3.6 -12.48,-8.23 -9.9,0 -17.73,-7.69 -29.12,-12.35 -0.13,-0.05 -29.87,0 -33.28,0 -24.85,0 -11.06,0.12 -20.8,4.12 -0.73,0.29 -181.99,0 -195.53,0 -30.25,0 -46,-4.12 -74.88,-4.12 -19.33,0 -18.79,-4.12 -24.96,-4.12 -22.08,0 -5.57,0.42 -16.64,-4.11 -17.19,-7.05 -439.34,-4.12 -495.05,-4.12 -36.69,0 -20,8.23 -33.28,8.23 -16.9,0 -9.69,-0.43 -20.8,4.12 -11.21,4.59 -12.34,-8.51 -20.8,8.23 -31.89,0 -63.79,0 -95.68,0 -11.43,0 -41.6,5.51 -41.6,16.46 -7.34,0 -10.69,3.96 -12.48,8.24 -3.04,7.27 -89.46,4.11 -104,4.11 -19.48,0 -22.02,-12.35 -33.29,-12.35 -15.72,0 -16.93,-12.34 -29.12,-12.34 -2.88,0 -32.42,-17.01 -37.43,-20.58 -11.33,-8.08 -47.16,-4.12 -62.41,-4.12 -32.56,0 -51.44,4.12 -83.2,4.12 -23.31,0 -4.35,-0.92 -16.64,4.11 -14.04,5.76 -24.96,1.06 -24.96,8.24 -124.8,0 -249.6,0 -374.41,0 -19.3,0 -126.38,6.66 -137.28,-4.12 -15.35,-15.19 -16.64,10.82 -16.64,-12.35 -15.1,44.84 -12.48,63.78 -12.48,111.13 0,47.64 12.48,23.36 12.48,49.39 0,38.89 -9.35,15.53 -16.64,32.94 -4.38,10.45 -11.38,16.63 8.32,24.69 10.48,4.3 -3.58,12.35 12.48,12.35 0,12.57 2.63,37.05 -12.48,37.05 0,15.72 -16.64,-2.75 -16.64,41.15 0,5.55 -0.33,39.79 0,41.16 8.7,36.44 8.32,22.91 8.32,61.75 0,44.98 -6.32,360.16 4.16,374.55 10.78,14.8 4.16,76.35 4.16,98.79 0,9.36 -0.16,102.52 0,102.9l4.16 12.35c9.26,4.58 12.48,4.01 12.48,12.34 12.86,6.37 12.48,10.3 12.48,24.7 12.68,6.27 8.32,11.17 8.32,28.81 0,4.26 0.11,69.72 0,69.97 -5.06,12.09 -4.16,1.81 -4.16,20.59 0,34.01 -12.48,19.57 -12.48,53.5 0,16.96 1.99,30.6 -4.16,45.28 -3.29,7.86 -8.32,14.17 -8.32,24.7 0,8.27 0.15,94.32 0,94.67 -8.79,21 -8.32,-8.33 -8.32,28.81 0,30.54 -5.56,108.44 4.16,131.71 7.46,17.82 29.12,12.53 29.12,57.63 0,19.07 2.72,41.2 -4.16,57.62 -8.35,19.93 -8.32,-8.16 -8.32,37.05 0,44.09 -24.96,11.16 -24.96,53.5 0,22.8 -8.32,-8.23 -8.32,37.04 0,16.6 -4.16,14.03 -4.16,37.05 0,6.3 -0.12,77.92 0,78.21 5.09,12.15 4.16,-6.61 4.16,16.46 0,13.78 4.16,6.59 4.16,28.81 0,10.98 0,21.95 0,32.93 -9.37,0 -6.09,28.27 -12.48,37.05 -13.06,17.92 1.2,63.93 -4.16,86.43 -4.09,17.14 -4.16,9.9 -4.16,28.81 -8.39,0 -12.48,17.11 -12.48,24.7 0,67.22 0,134.46 0,201.69 -10.46,0 -0.35,7.38 -4.16,16.46 -4.6,10.97 -4.16,3.82 -4.16,20.58 0,37.85 -12.48,8.59 -12.48,57.62 0,13.72 0,27.44 0,41.16z"/>
  </g>
 </g>
</svg>
